<svg aria-hidden="true" style="position:absolute;width:0;height:0" xmlns="http://www.w3.org/2000/svg" overflow="hidden"><defs><symbol id="icon-facebook" viewBox="0 0 32 32"><path d="M18.076 29.184h-4.943V16H9.837v-4.538h3.296l-.004-2.684c0-3.703 1.009-5.963 5.376-5.963h3.637v4.55h-2.276c-1.707 0-1.779.629-1.779 1.822l-.011 2.274h4.087l-.484 4.542h-3.595l-.009 13.184z"/></symbol><symbol id="icon-logo" viewBox="0 0 32 32"><path d="M23.733 29.224c0-.023.003-.046.004-.068V18.617l-4.471 2.247c-.05.029-.11.06-.172.088l-.012.005-.005.003a1.773 1.773 0 01-1.379 0l-.001.001-.037-.019a1.51 1.51 0 01-.151-.076l.009.005-4.477-2.251v7.006l.002.05a1.775 1.775 0 01-3.55.002v-.001l.003-.063h-.003v-9.893l.004-.004a1.775 1.775 0 011.771-1.698c.366 0 .707.113.99.304l5.154 2.954c.281.184.615.292.974.292h.003c.366 0 .706-.111.987-.302l-.006.004 5.139-2.946c.278-.192.623-.306.994-.306h.005a1.775 1.775 0 011.772 1.711V15.744c0 .017.003.033.003.05l-.003.049v10.596a15.442 15.442 0 004.131-10.533C31.411 7.344 24.47.404 15.908.404S.406 7.344.406 15.906c0 8.562 6.94 15.503 15.502 15.503h.018c2.879 0 5.575-.789 7.881-2.162l-.071.039c-.001-.021-.006-.041-.006-.062z"/></symbol><symbol id="icon-pencil" viewBox="0 0 32 32"><path d="M26.824 6.245l2.541 2.542c.151.15.228.35.228.554a.769.769 0 01-.231.556h.002L13.181 26.079l1.067 1.068 16.183-16.182c.414-.416.67-.989.67-1.622s-.256-1.207-.671-1.623l-6.154-6.152a2.28 2.28 0 00-1.619-.671h-.003c-.584 0-1.176.223-1.624.672L4.851 17.748l1.067 1.067L22.1 2.633c.153-.152.348-.228.554-.229s.404.077.556.229l2.544 2.543-15.347 15.347 1.067 1.067L26.822 6.243zM3.909 21.895c-.313-.307-.682-.552-1.171-.56a1.216 1.216 0 00-.979.504c-.212.29-.298.615-.329.963l-.523 6.096a1.823 1.823 0 00-.009.188v.011-.001.027c0 .547.221 1.043.578 1.402.365.366.878.577 1.423.577h.005c.06 0 .118-.002.179-.006l6.119-.525c.347-.03.673-.118.962-.33.292-.202.512-.595.503-.979-.008-.49-.252-.86-.56-1.171L3.91 21.894zm-.942 7.695c-.015 0-.039.003-.064.003-.333-.023-.475-.164-.497-.498l-.005-.063h.009l.514-5.992 6.035 6.038-5.991.512z"/></symbol><symbol id="icon-screen" viewBox="0 0 32 32"><path d="M16.744 22.326v-2.233h-1.488v2.233c-1.641.333-3.158 1.367-3.523 2.996l-9.872-.019v1.488l9.802-.002a4.261 4.261 0 004.222 3.723 4.256 4.256 0 004.216-3.702l.002-.021 10.036.002v-1.488l-10.106.019c-.381-1.704-1.539-2.741-3.289-2.996zM16 29.023c-1.542-.004-2.974-1.436-2.977-2.977.003-1.539 1.435-2.229 2.977-2.233 1.538.004 2.974.694 2.977 2.233-.003 1.54-1.439 2.973-2.977 2.977zM27.767 1.488H4.232c-1.284.002-2.369.945-2.372 2.233v13.395c.003 1.284.947 2.23 2.233 2.233h23.814c1.285-.003 2.23-.948 2.233-2.233V3.721c-.003-1.287-1.087-2.23-2.372-2.233zm.863 15.427c-.002.469-.254.943-.723.945H4.093c-.469-.002-.741-.276-.744-.744V3.721c0-.47.414-.764.883-.766l23.535.002c.47 0 .861.391.863.861l-.002 13.098h.003z"/></symbol><symbol id="icon-tag" viewBox="0 0 32 32"><path d="M23.473 17.724c-.239-3.894-3.028-7.079-6.647-7.511v-.271a2.26 2.26 0 00-1.184-1.914l-.012-.006-3.517-1.726c-.175-.049-.465-.519-.433-.696V4.259a.232.232 0 01.225-.225h5.486v.476a1.833 1.833 0 001.831 1.831h1.407A1.833 1.833 0 0022.46 4.51V3.103a1.836 1.836 0 00-1.831-1.833l-1.407.002a1.828 1.828 0 00-1.77 1.386l-.003.013h-5.544a1.591 1.591 0 00-1.589 1.589v1.341A2.242 2.242 0 0011.5 7.515l.012.006 3.516 1.725c.175.052.465.519.435.697v.247c-3.76.295-6.689 3.54-6.937 7.535l-.162-.269v10.909c.001 1.508 1.399 2.908 2.909 2.909h9.455c1.511-.001 2.906-1.401 2.909-2.909V17.456l-.163.269zM18.755 3.103a.476.476 0 01.467-.467h1.408c.252 0 .465.214.468.467V4.51a.477.477 0 01-.467.467h-1.408a.478.478 0 01-.468-.466V3.103zm-2.003 12.848c.256.004.462.21.465.466v1.409a.474.474 0 01-.465.466h-1.409a.476.476 0 01-.466-.466v-1.409a.473.473 0 01.465-.466h1.41zm5.43 2.958v9.455c-.003.75-.705 1.452-1.455 1.455h-9.455c-.75-.002-1.452-.705-1.455-1.455v-9.455l.062.181v-.684c-.003-.111-.009-.15-.007-.15.004-3.557 2.496-6.397 5.59-6.703v3.033h-.119a1.83 1.83 0 00-1.83 1.83v1.409a1.834 1.834 0 001.83 1.831h1.409a1.833 1.833 0 001.83-1.83v-1.409a1.829 1.829 0 00-1.752-1.824h-.004v-2.999c2.959.447 5.298 3.216 5.301 6.663.001 0-.004.039-.007.149v.684l.062-.18z"/></symbol><symbol id="icon-twitter" viewBox="0 0 32 32"><path d="M27.366 8.33c-.848.383-1.831.666-2.862.799l-.052.005a5.161 5.161 0 002.22-2.772l.01-.036a10.19 10.19 0 01-3.224 1.23 5.07 5.07 0 00-8.637 4.661l-.007-.035A14.37 14.37 0 014.386 6.91l-.02-.026a5.022 5.022 0 00-.689 2.554c0 1.75.886 3.293 2.234 4.205l.018.011a5.035 5.035 0 01-2.323-.645l.025.013v.06a5.082 5.082 0 004.033 4.968l.033.006a4.88 4.88 0 01-1.316.176h-.019.001c-.328 0-.638-.032-.954-.08.668 2.03 2.531 3.477 4.738 3.514h.004a10.109 10.109 0 01-6.283 2.172h-.014.001c-.42 0-.824-.02-1.22-.07a14.264 14.264 0 007.77 2.276h.009c9.332 0 14.43-7.726 14.43-14.43 0-.218 0-.436-.012-.656 1-.72 1.852-1.612 2.536-2.628.682-1.016 0 0 0 0z"/></symbol></defs></svg>